<?xml version="1.0" standalone="no"?>
<!DOCTYPE svg PUBLIC "-//W3C//DTD SVG 20010904//EN"
 "http://www.w3.org/TR/2001/REC-SVG-20010904/DTD/svg10.dtd">
<svg version="1.0" xmlns="http://www.w3.org/2000/svg"
 width="512.000000pt" height="512.000000pt" viewBox="0 0 512.000000 512.000000"
 preserveAspectRatio="xMidYMid meet">

<g transform="translate(0.000000,512.000000) scale(0.100000,-0.100000)"
fill="#000000" stroke="none">
<path d="M2331 5109 c-470 -42 -929 -220 -1320 -512 -124 -92 -396 -364 -488
-488 -597 -799 -688 -1838 -239 -2717 283 -552 762 -984 1348 -1216 158 -62
221 -61 270 5 18 24 20 44 19 285 -1 142 -3 259 -5 261 -2 2 -27 -2 -57 -9
-31 -7 -121 -13 -209 -13 -135 0 -165 3 -230 24 -91 28 -130 48 -197 98 -74
56 -122 121 -192 263 -69 142 -141 237 -221 293 -79 54 -130 104 -130 127 0
62 144 68 265 10 88 -42 177 -126 252 -237 163 -244 378 -315 665 -222 l66 21
16 70 c20 87 64 180 111 236 20 23 33 42 28 42 -29 1 -202 31 -273 48 -250 60
-433 155 -574 299 -215 218 -317 534 -303 947 5 171 24 260 81 390 24 53 109
189 156 246 l20 25 -22 65 c-18 54 -21 90 -22 215 -1 153 5 192 47 329 l22 68
90 -5 c144 -8 295 -66 513 -198 l104 -62 91 21 c193 46 289 56 547 56 256 0
341 -9 550 -56 l95 -21 74 47 c203 131 389 205 536 213 l90 5 22 -68 c58 -180
68 -406 24 -544 l-21 -65 20 -25 c47 -57 132 -193 156 -246 57 -128 76 -219
81 -389 22 -637 -232 -1047 -748 -1210 -83 -26 -227 -59 -309 -70 -25 -3 -57
-8 -73 -11 l-27 -6 36 -41 c44 -52 88 -143 110 -228 14 -53 18 -139 23 -516
l6 -453 27 -26 c20 -21 39 -28 80 -32 46 -3 70 2 173 43 599 237 1078 673
1364 1242 362 722 359 1582 -8 2301 -133 259 -258 429 -476 647 -218 218 -388
343 -647 476 -424 216 -911 310 -1387 268z"/>
<path d="M909 1479 c-11 -8 -10 -13 10 -30 28 -23 46 -20 46 6 0 21 -36 37
-56 24z"/>
<path d="M1017 1393 c-23 -23 18 -78 49 -66 21 8 17 40 -8 57 -25 18 -32 19
-41 9z"/>
<path d="M1117 1263 c-13 -13 -7 -50 11 -66 22 -20 52 -22 53 -4 5 48 -39 96
-64 70z"/>
<path d="M1237 1113 c-16 -15 -6 -53 18 -69 31 -20 59 -15 63 13 6 38 -57 81
-81 56z"/>
<path d="M1403 994 c-9 -23 8 -46 41 -57 31 -10 56 5 56 34 0 36 -84 55 -97
23z"/>
<path d="M1816 987 c-24 -18 -17 -51 13 -55 55 -8 95 24 70 54 -15 18 -60 18
-83 1z"/>
<path d="M1619 960 l-24 -20 24 -20 c26 -22 43 -25 72 -10 37 20 13 70 -34 70
-8 0 -25 -9 -38 -20z"/>
</g>
</svg>
